<svg width="1920" height="1051" viewBox="0 0 1920 1051" fill="none" xmlns="http://www.w3.org/2000/svg">
<path fill-rule="evenodd" clip-rule="evenodd" d="M0 0H1920V1051H0V0Z" fill="#EDF5F8"/>
<mask id="mask0_227_3" style="mask-type:alpha" maskUnits="userSpaceOnUse" x="0" y="0" width="1920" height="1051">
<path fill-rule="evenodd" clip-rule="evenodd" d="M0 0H1920V1051H0V0Z" fill="#EDF5F8"/>
</mask>
<g mask="url(#mask0_227_3)">
<g opacity="0.2" filter="url(#filter0_f_227_3)">
<path fill-rule="evenodd" clip-rule="evenodd" d="M1583 370C1693.46 370 1783 459.543 1783 570C1783 680.457 1693.46 770 1583 770C1472.54 770 1383 680.457 1383 570C1383 459.543 1472.54 370 1583 370Z" fill="#F8B81F"/>
</g>
<g opacity="0.2" filter="url(#filter1_f_227_3)">
<path fill-rule="evenodd" clip-rule="evenodd" d="M345 70C469.264 70 570 170.736 570 295C570 419.264 469.264 520 345 520C220.736 520 120 419.264 120 295C120 170.736 220.736 70 345 70Z" fill="#8358FF"/>
</g>
<g opacity="0.2" filter="url(#filter2_f_227_3)">
<path fill-rule="evenodd" clip-rule="evenodd" d="M167 30C277.457 30 367 119.543 367 230C367 340.457 277.457 430 167 430C56.543 430 -33 340.457 -33 230C-33 119.543 56.543 30 167 30Z" fill="#EE4A62"/>
</g>
</g>
<defs>
<filter id="filter0_f_227_3" x="1063" y="50" width="1040" height="1040" filterUnits="userSpaceOnUse" color-interpolation-filters="sRGB">
<feFlood flood-opacity="0" result="BackgroundImageFix"/>
<feBlend mode="normal" in="SourceGraphic" in2="BackgroundImageFix" result="shape"/>
<feGaussianBlur stdDeviation="160" result="effect1_foregroundBlur_227_3"/>
</filter>
<filter id="filter1_f_227_3" x="-180" y="-230" width="1050" height="1050" filterUnits="userSpaceOnUse" color-interpolation-filters="sRGB">
<feFlood flood-opacity="0" result="BackgroundImageFix"/>
<feBlend mode="normal" in="SourceGraphic" in2="BackgroundImageFix" result="shape"/>
<feGaussianBlur stdDeviation="150" result="effect1_foregroundBlur_227_3"/>
</filter>
<filter id="filter2_f_227_3" x="-333" y="-270" width="1000" height="1000" filterUnits="userSpaceOnUse" color-interpolation-filters="sRGB">
<feFlood flood-opacity="0" result="BackgroundImageFix"/>
<feBlend mode="normal" in="SourceGraphic" in2="BackgroundImageFix" result="shape"/>
<feGaussianBlur stdDeviation="150" result="effect1_foregroundBlur_227_3"/>
</filter>
</defs>
</svg>
