<svg width="1920" height="180" viewBox="0 0 1920 180" fill="none" xmlns="http://www.w3.org/2000/svg">
<path d="M21.17 12.9809C50.8 9.98095 87.83 16.3609 91.63 26.2709C103.54 21.1009 127.75 19.9109 145.84 22.6509C163.93 25.3909 176 31.321 180.9 37.561C188.8 28.561 219.9 22.6909 248.55 24.0709C276.98 25.4409 300.47 33.2809 306.22 42.341C312.604 41.437 319.056 41.1024 325.5 41.341C344.69 42.111 360.27 47.491 364.5 53.561C378.96 44.261 416.16 39.3709 446.72 42.7509C468.84 45.201 485.35 51.7509 490.41 59.0509C494.41 58.4909 498.73 58.1009 502.85 57.931L504.63 57.881C505.22 57.6609 505.78 57.431 506.4 57.2109C537.5 46.1209 601.31 45.0509 627.33 57.4209C649.92 51.4209 683.06 50.5109 709.92 54.1009C722.53 44.7909 745.57 36.8309 775.57 33.9609C811.57 30.5209 856.11 36.311 867.94 47.791C882.1 40.681 911.66 37.181 936.77 39.6409C949.05 40.8509 959.77 43.4409 967.38 46.7509C973.79 42.6409 987.05 40.091 1000.23 38.2609C1027.8 34.4509 1059.05 32.7109 1088.07 35.1709C1117.09 37.6309 1143.16 44.771 1150.28 54.1709C1158.92 47.7509 1181.21 43.5209 1202.86 44.1709C1212.39 44.4212 1221.86 45.7633 1231.08 48.1709C1252.96 41.6909 1283.54 38.1709 1313.15 39.3009C1353.06 40.7809 1388.83 50.491 1400.1 62.8909C1405.86 62.1523 1411.66 61.7848 1417.47 61.791C1423.23 59.25 1429.14 57.0757 1435.17 55.2809C1451.42 50.3709 1474.44 47.021 1496.58 46.3909C1495.03 43.771 1495.35 41.0609 1498.03 38.5309C1508.31 28.8509 1543.89 23.5309 1575.31 25.1009C1594.22 25.9381 1612.95 29.1534 1631.06 34.6709C1632.88 32.9809 1635.75 31.4309 1639.8 30.1509C1660.21 23.7209 1698.2 25.7309 1714.42 33.3009C1694.42 24.521 1679.71 11.1409 1704.42 3.71095C1720.42 -1.10905 1746.08 -0.699052 1766.42 1.91095C1793.7 5.39095 1816.11 12.4309 1828.77 20.9109C1828.21 19.2994 1828.29 17.5332 1829 15.9809C1831.5 10.2009 1846.55 4.53095 1864.64 4.98095C1873.13 5.28812 1881.55 6.65195 1889.71 9.04095C1902.51 12.5909 1911.77 16.2809 1920.02 20.7909V179.981H0V16.8809C6.92536 14.9484 14.0106 13.6431 21.17 12.9809Z" fill="#1F2121"/>
</svg>
