<svg width="1920" height="552" viewBox="0 0 1920 552" fill="none" xmlns="http://www.w3.org/2000/svg">
<path d="M0 551.999H1920V111.999H0V551.999ZM1889.69 16.1294C1882.48 12.5794 1874.11 9.34939 1864.62 8.91939C1846.53 8.10939 1831.48 18.1694 1828.98 28.4294C1828.31 31.2967 1828.27 34.2748 1828.86 37.1594C1816.2 22.0694 1793.79 9.56939 1766.51 3.37939C1746.13 -1.24061 1720.51 -1.96061 1704.51 6.57939C1679.77 19.7694 1694.43 43.5794 1714.51 59.0994C1698.29 45.6794 1660.3 42.0994 1639.89 53.5194C1636.34 55.3873 1633.32 58.1433 1631.15 61.5194C1613.96 52.008 1594.97 46.216 1575.4 44.5194C1543.98 41.7194 1508.4 51.1594 1498.12 68.3494C1496.85 70.4272 1496.06 72.7628 1495.81 75.1852C1495.56 77.6075 1495.85 80.0554 1496.67 82.3494C1474.53 83.4594 1451.51 89.3994 1435.26 98.1194C1429.03 101.442 1423.11 105.31 1417.56 109.679C1411.71 109.681 1405.88 110.352 1400.19 111.679C1388.92 89.6794 1353.19 72.4294 1313.24 69.7994C1283.63 67.7994 1253.05 74.0494 1231.17 85.5294C1222.31 81.3854 1212.72 79.0078 1202.95 78.5294C1181.3 77.3294 1159.01 84.8394 1150.37 96.2394C1143.25 79.5894 1117.18 66.8894 1088.16 62.5294C1059.14 58.1694 1027.89 61.2594 1000.32 68.0294C987.07 71.2094 973.81 75.7394 967.4 82.9994C959.75 77.1194 949.07 72.5294 936.79 70.3894C911.68 66.0194 882.12 72.2194 867.96 84.8494C856.13 64.4794 811.6 54.1994 775.59 60.3094C745.59 65.3994 722.59 79.5194 709.94 96.0494C683.08 89.6794 649.94 91.2594 627.35 101.949C601.35 79.9494 537.52 81.8894 506.42 101.579C505.8 101.959 505.24 102.369 504.65 102.759L502.87 102.859C498.674 103.168 494.512 103.837 490.43 104.859C485.37 91.8594 468.86 80.2594 446.74 75.9194C416.18 69.9194 378.98 78.5894 364.52 95.0994C360.27 84.3294 344.69 74.7794 325.52 73.4194C319.041 72.9883 312.534 73.5823 306.24 75.1794C300.49 59.0894 277 45.1794 248.57 42.7394C219.91 40.2794 188.82 50.7394 180.92 66.6794C176 55.6194 163.92 45.1294 145.86 40.2694C127.8 35.4094 103.56 37.5294 91.65 46.6994C87.85 29.0994 50.82 17.8294 21.19 23.1094C13.8222 24.3349 6.67961 26.6574 0 29.9994L0 111.999H1920V36.9994C1911.75 28.9994 1902.49 22.4294 1889.69 16.1294Z" fill="#F7EDE6"/>
</svg>
