<svg width="1920" height="106" viewBox="0 0 1920 106" fill="none" xmlns="http://www.w3.org/2000/svg">
<path fill-rule="evenodd" clip-rule="evenodd" d="M0.000228882 0.0001347V81.0001C0.000228882 81.0001 391.29 174.31 1920 0.000127071V0.0001347L0.000228882 0.0001347Z" fill="white"/>
<mask id="mask0_379_20" style="mask-type:alpha" maskUnits="userSpaceOnUse" x="0" y="0" width="1920" height="106">
<path fill-rule="evenodd" clip-rule="evenodd" d="M0.000228882 0.0001347V81.0001C0.000228882 81.0001 391.29 174.31 1920 0.000127071V0.0001347L0.000228882 0.0001347Z" fill="white"/>
</mask>
<g mask="url(#mask0_379_20)">
<path fill-rule="evenodd" clip-rule="evenodd" d="M1920 106V21.0002C1920 21.0002 1167.71 157.31 0.000228882 30.0002V106L1920 106Z" fill="url(#paint0_linear_379_20)" fill-opacity="0.1"/>
<path fill-rule="evenodd" clip-rule="evenodd" d="M1920 106V21.0002C1920 21.0002 1209.71 49.3102 0.000228882 80.0002V106L1920 106Z" fill="url(#paint1_linear_379_20)" fill-opacity="0.1"/>
</g>
<defs>
<linearGradient id="paint0_linear_379_20" x1="1926" y1="20.9981" x2="-0.00118049" y2="949.997" gradientUnits="userSpaceOnUse">
<stop stop-color="#1AB69D"/>
<stop offset="1" stop-color="#31B978"/>
</linearGradient>
<linearGradient id="paint1_linear_379_20" x1="1919.99" y1="20.9727" x2="-0.014889" y2="949.97" gradientUnits="userSpaceOnUse">
<stop stop-color="#1AB69D"/>
<stop offset="1" stop-color="#31B978"/>
</linearGradient>
</defs>
</svg>
