<svg xmlns="http://www.w3.org/2000/svg" width="70" height="70"><path fill="#FFF" fill-rule="evenodd" d="M35 69.999c-19.33 0-35-15.669-35-35C0 15.67 15.67 0 35 0s35 15.67 35 34.999c0 19.331-15.67 35-35 35Zm0-66.5c-17.397 0-31.5 14.104-31.5 31.5C3.5 52.396 17.603 66.5 35 66.5s31.5-14.103 31.5-31.501c0-17.396-14.103-31.5-31.5-31.5Zm12.347 33.539L28.309 49.73c-1.628 1.087-3.809-.082-3.809-2.039V22.307c0-1.956 2.181-3.123 3.809-2.038l19.038 12.692a2.45 2.45 0 0 1 0 4.077ZM28 24.27v21.46l16.095-10.731L28 24.27Z"/></svg>